<?xml version="1.0" encoding="UTF-8"?>
<svg id="Calque_22" data-name="Calque 22" xmlns="http://www.w3.org/2000/svg" viewBox="0 0 371.57 359">
  <defs>
    <style>
      .cls-1 {
        stroke: #2a398e;
        stroke-width: 4px;
      }

      .cls-1, .cls-2, .cls-3, .cls-4, .cls-5, .cls-6, .cls-7, .cls-8, .cls-9, .cls-10, .cls-11, .cls-12, .cls-13 {
        stroke-miterlimit: 10;
      }

      .cls-1, .cls-2, .cls-4 {
        fill: #c9cee4;
      }

      .cls-2 {
        stroke: #284798;
      }

      .cls-2, .cls-4 {
        stroke-width: .8px;
      }

      .cls-3 {
        stroke-width: .5px;
      }

      .cls-3, .cls-5, .cls-6, .cls-7, .cls-8, .cls-9, .cls-10, .cls-11, .cls-12 {
        fill: none;
      }

      .cls-3, .cls-7, .cls-8, .cls-10, .cls-12, .cls-13 {
        stroke: #fff;
      }

      .cls-4 {
        stroke: #2c4093;
      }

      .cls-5 {
        stroke-width: 9px;
      }

      .cls-5, .cls-6, .cls-11 {
        stroke: #2a4b9b;
      }

      .cls-14 {
        fill: #2e4697;
      }

      .cls-14, .cls-15, .cls-16, .cls-17, .cls-18, .cls-19, .cls-20, .cls-21 {
        stroke-width: 0px;
      }

      .cls-6 {
        stroke-width: 3px;
      }

      .cls-7 {
        stroke-width: 5px;
      }

      .cls-15 {
        fill: #3abcdb;
      }

      .cls-8 {
        stroke-width: 11px;
      }

      .cls-16 {
        fill: #2a4b9b;
      }

      .cls-17 {
        fill: #2f4c9b;
      }

      .cls-9 {
        stroke: #2a4899;
        stroke-width: 2px;
      }

      .cls-18 {
        fill: #213a8f;
      }

      .cls-10 {
        stroke-width: 7px;
      }

      .cls-11 {
        stroke-width: 10px;
      }

      .cls-12 {
        stroke-width: 8px;
      }

      .cls-19 {
        fill: #7078b1;
      }

      .cls-20, .cls-13 {
        fill: #fff;
      }

      .cls-21 {
        fill: #2a4899;
      }
    </style>
  </defs>
  <polygon class="cls-20" points="249.76 111.8 237.06 117.4 244.26 122.2 245.46 122.6 253.76 119.4 249.76 111.8"/>
  <polygon class="cls-20" points="95.36 197.5 104.86 191.4 105.66 200.6 98.16 205.7 95.36 197.5"/>
  <circle class="cls-20" cx="177.56" cy="21.3" r="21.3"/>
  <polygon class="cls-16" points="98.16 201.6 109.06 193.8 113.16 205.2 101.36 212 98.16 201.6"/>
  <polygon class="cls-16" points="256.06 114.9 240.16 122.4 249.86 127.2 251.26 127.5 261.76 123.1 256.06 114.9"/>
  <circle class="cls-5" cx="191.96" cy="187.9" r="166.6"/>
  <ellipse class="cls-10" cx="187.36" cy="184.2" rx="165" ry="170.4"/>
  <circle class="cls-12" cx="185.76" cy="180.7" r="83.1"/>
  <circle class="cls-13" cx="77.86" cy="210.6" r="8.7"/>
  <circle class="cls-16" cx="187.36" cy="183.5" r="83.1"/>
  <circle class="cls-16" cx="182.76" cy="23.9" r="21.3"/>
  <path class="cls-8" d="M251.76,116.9c90.9-39.9,106.7-36.7,110.6-30.2,6.4,10.7-40,50.3-61.7,68.8-24.7,21.1-57.5,48.6-112.4,77.4C110.25,273.8,13.15,303.9,5.85,289.5c-2.1-4.1,5.2-12,19.7-27.9,26.4-28.9,53-47.7,72.3-59.4"/>
  <circle class="cls-20" cx="314.76" cy="148.6" r="13.5"/>
  <circle class="cls-16" cx="82.06" cy="212" r="7.7"/>
  <circle class="cls-15" cx="320.26" cy="153.6" r="8.2"/>
  <circle class="cls-16" cx="319.56" cy="150" r="12"/>
  <polygon class="cls-16" points="254.56 115.3 253.46 115.7 251.16 116.9 247.16 118.9 247.66 119.4 251.66 118.7 253.96 122.6 257.26 120.9 254.56 115.3"/>
  <circle class="cls-16" cx="81.36" cy="212.4" r="8.7"/>
  <path class="cls-7" d="M148.56,182.7c-.4-.9-.3-1.1-.6-1.7-.2-.3-.3-.6-.7-1-.4-.6-.7-.9-1.1-1.3,0,0-.3-.2-1-.6-1.2-.7-1.4-.6-2.1-1.1-.3-.2-1-.6-1.6-1.3-.6-.7-.9-1.4-1-1.7-.5-1.1-.5-2.1-.5-2.5,0-2.2-.2-4.4-.3-6.6,0-1.8,0-3.6-.1-5.3,0-.8,0-1.6.3-2.6.5-1.1,1.3-1.8,1.8-2.2,1.6-1.3,4.4-2.6,4.8-3.1.2-.3.3-.5.4-.8,0,0,3.7-10.1,10.4-17.5,2.5-2.8,6.1-6.7,12.3-9.6,7.6-3.5,14.5-3.3,17.6-3.2,2,0,6,.3,10.7,1.9,5.1,1.8,8.4,4.3,11.3,6.4,4.2,3.1,7,6.1,8.7,8.2,3.5,4.1,5.1,7.5,5.5,9.2.2.9.4,1.8.6,2.7.3,1.3.4,1.9.7,2.4.3.4.5.5,2,1.6,1.4,1,1.2.9,2.1,1.6,1.1.8,1.4.9,1.7,1.3.1.1.6.8.9,1.9.4,1.3.3,2.4.2,2.9,0,0,0,.4-.3,5.1-.2,4.1-.4,6.1-.4,6.8,0,.3,0,.9-.3,1.7-.4,1-1.1,1.7-1.4,2-.6.6-1.2.9-1.8,1.2l-1.2,1-1.7,1.8-1.3,3-.4,2.6v1h3.9l1.8-.4h1.7c0-.1,1,0,1,0h.3c0,.1.3.3.3.3l.3.2.4.3.3.5.4.6.2.7v.9l.4,2.1.5,1.8.3,1.1.2,1v.4h1.9l1.4.7.4.8,1-.6.9-.6h1.3c0,.1,1.1.3,1.1.3l.8.2,1.1.7.8.5.4.9v1.5l.4.7,1.2.4,1.1.4-23.8,10.6-41.5,7.9-48.8-9.1-7.7-5-2-3-.8-1.3,1-.6.9-1.4.7-1.6.8-1,.7-.5,1.7-.7,1.2.3h.7c0,.1.7.4.7.4l1.5.2.2-.8.8-.4.7-.2,1.3-.2h.6v-4.5l.4-1.7.8-1.1.5-.9,1.1-.8h1.3l6.2-.4h1l-.3-4h0l.1.2Z"/>
  <path class="cls-1" d="M150.56,182.1c-.3-.9-.2-1-.5-1.6-.2-.3-.3-.5-.7-1s-.7-.9-1.1-1.2c0,0-.3-.2-.9-.6-1.2-.6-1.3-.6-2-1-.3-.2-.9-.6-1.5-1.3-.6-.7-.9-1.3-1-1.6-.4-1.1-.4-2-.4-2.4,0-2.1-.2-4.2-.3-6.3,0-1.7,0-3.4-.1-5.1,0-.7,0-1.5.3-2.4.4-1.1,1.2-1.7,1.7-2.1,1.5-1.2,4.2-2.4,4.5-2.9.2-.2.3-.5.4-.7,0,0,3.5-9.6,9.9-16.6,2.4-2.6,5.8-6.4,11.7-9.1,7.2-3.4,13.8-3.2,16.7-3.1,2,0,5.7.3,10.2,1.8,4.8,1.7,8,4.1,10.8,6.1,4,3,6.7,5.9,8.3,7.8,3.3,3.9,4.9,7.1,5.2,8.8.2.9.4,1.7.6,2.6.3,1.2.4,1.8.7,2.2.3.4.4.4,1.9,1.6,1.3,1,1.1.9,2,1.6,1.1.8,1.3.8,1.7,1.3.1.1.6.7.9,1.8.3,1.2.2,2.2.2,2.8,0,0,0,.4-.3,4.9-.2,3.9-.4,5.8-.4,6.5,0,.3,0,.9-.3,1.6-.4,1-1,1.6-1.3,1.9-.6.5-1.1.8-1.8,1.1l-1.2.9-1.7,1.7-1.3,2.8-.3,2.5v.9h3.7l1.7-.4h2.9c0,.1.3.3.3.3l.3.2.4.3.3.5.3.6.2.7v.9l.4,2,.5,1.7.3,1.1.2,1v.4h1.8l1.3.7.3.8.9-.6.8-.6h1.2c0,.1,1.1.3,1.1.3l.8.2,1,.7.8.5.4.8v1.4l.4.7,1.1.3,1,.3-22.6,10.1-39.5,7.5-46.5-8.7-7.3-4.8-1.9-2.9-.7-1.2.9-.6.8-1.4.6-1.5.8-.9.7-.5,1.6-.7,1.1.3h.7c0,.1.7.4.7.4l1.5.2.2-.7.8-.4.7-.2,1.3-.2h.6v-4.3l.4-1.6.7-1.1.5-.8,1.1-.8h1.2l5.9-.3h.9l-.3-3.8h0l.1-.1Z"/>
  <polygon class="cls-14" points="174.46 192.9 178.66 193.8 183.86 194.6 187.86 194.6 193.56 193.7 197.96 192.9 197.96 195.4 199.06 196 200.46 195.4 202.16 194.5 204.46 193.5 206.56 192.9 209.36 191 208.06 193.5 205.56 195.4 202.16 197 198.86 198.7 195.96 199.9 192.36 201.4 190.86 202.3 188.36 203.3 184.46 203.3 182.06 203.3 181.06 201.4 177.76 200.4 170.36 198.1 166.96 195.4 162.66 191 167.76 193.4 171.86 195.4 172.96 195.4 174.46 192.9"/>
  <g>
    <polygon class="cls-19" points="153.46 191 152.26 193.5 152.26 196.3 152.26 198.6 154.76 201.5 158.36 204.3 166.26 209.6 173.06 211 182.76 211.9 192.36 211.9 201.66 211 208.66 208.3 214.56 204.3 218.76 201.5 219.26 197.7 219.26 194.5 217.26 191.5 216.06 191 208.26 197.7 200.66 201.5 191.16 203.3 182.56 203.3 174.56 202.6 168.46 199.9 153.46 191"/>
    <polygon class="cls-19" points="155.56 189.2 153.46 191 155.56 196 161.76 197.2 163.66 195.9 155.56 189.2"/>
  </g>
  <ellipse class="cls-6" cx="186.06" cy="163.2" rx="38.6" ry="40.2"/>
  <polygon class="cls-18" points="167.86 141.7 159.36 147.1 154.96 151.3 153.06 154.1 152.36 159.6 152.36 164.4 152.36 169.4 153.36 173.6 154.56 176.6 156.76 179.8 160.86 183 165.46 186.1 172.56 188.2 179.66 189.9 187.36 189.9 193.66 189.9 200.46 188.1 208.06 185.4 213.56 182.3 216.36 179.4 218.96 175.2 220.06 168.6 220.06 163.2 220.06 157.4 218.06 152.4 213.66 148 207.96 143.7 199.06 139.5 192.46 138.4 184.76 138.4 178.36 138.4 172.56 139.9 167.86 141.7"/>
  <polygon class="cls-4" points="155.46 153.2 153.96 157.5 153.96 161.6 153.96 166.2 153.96 170.6 155.46 174.2 157.26 177.1 159.76 179.7 161.46 180.7 159.56 175.6 157.76 170.3 157.76 165.4 155.46 153.2"/>
  <polygon class="cls-2" points="217.46 154.5 218.66 157 218.66 160.5 218.66 166.4 218.06 170.9 217.46 174.3 215.66 177.4 213.26 179.8 210.96 181.4 208.76 182.7 211.26 177.6 212.46 174.8 213.56 172.2 214.46 168.6 215.56 164.6 215.96 160.6 217.46 154.5"/>
  <g>
    <polyline class="cls-3" points="200.66 159.6 199.46 161.4 198.36 163.2"/>
    <line class="cls-3" x1="198.56" y1="161.5" x2="200.76" y2="161.5"/>
  </g>
  <polygon class="cls-21" points="174.96 124.7 174.96 129.2 175.66 132.9 170.96 135.2 170.56 126.1 174.96 124.7"/>
  <polygon class="cls-17" points="197.56 124.9 198.26 128.1 197.56 133.6 200.96 135.2 201.56 130 200.76 126 197.56 124.9"/>
  <polyline class="cls-9" points="155.56 144.7 161.56 139.9 168.66 136.2 175.66 132.9 184.16 131.4 187.36 131.4 189.26 131.4 197.56 133.6 200.96 135.2 206.26 137.1 210.46 139.6 215.96 144.7"/>
  <ellipse class="cls-20" cx="182.27" cy="147.23" rx="1.3" ry=".9" transform="translate(-38.69 69.29) rotate(-19.5)"/>
  <ellipse class="cls-20" cx="193.15" cy="152.86" rx="1.3" ry=".9" transform="translate(-39.95 73.24) rotate(-19.5)"/>
  <ellipse class="cls-20" cx="195.86" cy="145.01" rx="1.3" ry=".9" transform="translate(-37.17 73.7) rotate(-19.5)"/>
  <ellipse class="cls-20" cx="205.03" cy="152.51" rx="1.3" ry=".9" transform="translate(-39.15 77.19) rotate(-19.5)"/>
  <ellipse class="cls-20" cx="209.55" cy="163.48" rx="1.3" ry=".9" transform="translate(-42.55 79.32) rotate(-19.5)"/>
  <polygon class="cls-20" points="176.56 142.6 171.66 143.9 166.36 145.9 162.16 149.3 159.46 153 158.86 155.5 159.26 158.9 159.66 162.9 160.06 167.4 160.96 169.6 161.86 172.2 163.46 173.3 163.16 170 162.96 166.7 162.96 161.9 162.56 156 163.86 152.4 167.06 148.7 176.56 142.6"/>
  <g>
    <polyline class="cls-3" points="176.06 149.8 177.16 152 178.26 154.2"/>
    <line class="cls-3" x1="176.06" y1="152.9" x2="178.96" y2="151.1"/>
  </g>
  <g>
    <polyline class="cls-3" points="191.76 144.7 190.56 146.4 189.46 148.2"/>
    <line class="cls-3" x1="189.66" y1="146.6" x2="191.86" y2="146.6"/>
  </g>
  <g>
    <polyline class="cls-3" points="201.56 144.4 202.66 146.6 203.76 148.8"/>
    <line class="cls-3" x1="201.56" y1="147.4" x2="204.56" y2="145.7"/>
  </g>
  <ellipse class="cls-20" cx="161.76" cy="160.14" rx=".7" ry=".9" transform="translate(-63.25 194.52) rotate(-53.4)"/>
  <ellipse class="cls-20" cx="171.03" cy="172.07" rx=".9" ry=".5" transform="translate(-47.63 66.96) rotate(-19.5)"/>
  <ellipse class="cls-20" cx="189.53" cy="168.09" rx="1.3" ry=".9" transform="translate(-45.24 72.91) rotate(-19.5)"/>
  <ellipse class="cls-20" cx="164.32" cy="178.06" rx=".9" ry=".5" transform="translate(-50.01 65.06) rotate(-19.5)"/>
  <ellipse class="cls-20" cx="203.93" cy="164.87" rx=".9" ry=".5" transform="translate(-43.34 77.53) rotate(-19.5)"/>
  <ellipse class="cls-20" cx="210.83" cy="156.44" rx=".9" ry=".5" transform="translate(-40.13 79.35) rotate(-19.5)"/>
  <ellipse class="cls-20" cx="199.77" cy="154.65" rx=".9" ry=".5" transform="translate(-40.17 75.56) rotate(-19.5)"/>
  <g>
    <polyline class="cls-3" points="209.26 169.7 208.06 171.5 206.96 173.3"/>
    <line class="cls-3" x1="207.16" y1="171.6" x2="209.36" y2="171.6"/>
  </g>
  <path class="cls-11" d="M101.46,205.7c-19.3,11.7-46,30.5-72.3,59.4-14.5,15.9-21.8,23.8-19.7,27.9,7.3,14.4,104.4-15.7,182.4-56.6,55-28.8,87.7-56.4,112.4-77.4,21.7-18.5,68.2-58.1,61.7-68.8-3.9-6.5-19.7-9.6-110.6,30.2"/>
</svg>